<mxfile host="app.diagrams.net" agent="Mozilla/5.0 (X11; Linux x86_64; rv:134.0) Gecko/20100101 Firefox/134.0" version="26.0.8">
  <diagram name="Page-1" id="GLl4QDrcIi_mFu9pZ8Us">
    <mxGraphModel dx="989" dy="517" grid="1" gridSize="10" guides="1" tooltips="1" connect="1" arrows="1" fold="1" page="1" pageScale="1" pageWidth="850" pageHeight="1100" math="0" shadow="0">
      <root>
        <mxCell id="0" />
        <mxCell id="1" parent="0" />
        <mxCell id="uq0FQUMXlLQK3n40BFO4-3" value="" style="sketch=0;outlineConnect=0;fontColor=#232F3E;gradientColor=none;fillColor=#232F3D;strokeColor=none;dashed=0;verticalLabelPosition=bottom;verticalAlign=top;align=center;html=1;fontSize=12;fontStyle=0;aspect=fixed;pointerEvents=1;shape=mxgraph.aws4.mobile_client;" vertex="1" parent="1">
          <mxGeometry x="152.15" y="140" width="33.69" height="64.09" as="geometry" />
        </mxCell>
        <mxCell id="uq0FQUMXlLQK3n40BFO4-14" value="" style="edgeStyle=orthogonalEdgeStyle;rounded=0;orthogonalLoop=1;jettySize=auto;html=1;" edge="1" parent="1" source="uq0FQUMXlLQK3n40BFO4-4" target="uq0FQUMXlLQK3n40BFO4-6">
          <mxGeometry relative="1" as="geometry" />
        </mxCell>
        <mxCell id="uq0FQUMXlLQK3n40BFO4-15" style="edgeStyle=orthogonalEdgeStyle;rounded=0;orthogonalLoop=1;jettySize=auto;html=1;" edge="1" parent="1" source="uq0FQUMXlLQK3n40BFO4-4" target="uq0FQUMXlLQK3n40BFO4-5">
          <mxGeometry relative="1" as="geometry" />
        </mxCell>
        <mxCell id="uq0FQUMXlLQK3n40BFO4-4" value="" style="fontColor=#0066CC;verticalAlign=top;verticalLabelPosition=bottom;labelPosition=center;align=center;html=1;outlineConnect=0;fillColor=#CCCCCC;strokeColor=#6881B3;gradientColor=none;gradientDirection=north;strokeWidth=2;shape=mxgraph.networks.proxy_server;" vertex="1" parent="1">
          <mxGeometry x="292.15" y="190" width="105" height="105" as="geometry" />
        </mxCell>
        <mxCell id="uq0FQUMXlLQK3n40BFO4-5" value="" style="image;aspect=fixed;perimeter=ellipsePerimeter;html=1;align=center;shadow=0;dashed=0;spacingTop=3;image=img/lib/active_directory/web_server.svg;" vertex="1" parent="1">
          <mxGeometry x="480" y="167.5" width="56" height="70" as="geometry" />
        </mxCell>
        <mxCell id="uq0FQUMXlLQK3n40BFO4-28" value="" style="edgeStyle=orthogonalEdgeStyle;rounded=0;orthogonalLoop=1;jettySize=auto;html=1;" edge="1" parent="1" source="uq0FQUMXlLQK3n40BFO4-6" target="uq0FQUMXlLQK3n40BFO4-10">
          <mxGeometry relative="1" as="geometry">
            <Array as="points">
              <mxPoint x="600" y="283" />
              <mxPoint x="600" y="200" />
            </Array>
          </mxGeometry>
        </mxCell>
        <mxCell id="uq0FQUMXlLQK3n40BFO4-6" value="" style="image;aspect=fixed;perimeter=ellipsePerimeter;html=1;align=center;shadow=0;dashed=0;spacingTop=3;image=img/lib/active_directory/web_server.svg;" vertex="1" parent="1">
          <mxGeometry x="480" y="247.5" width="56" height="70" as="geometry" />
        </mxCell>
        <mxCell id="uq0FQUMXlLQK3n40BFO4-9" value="" style="sketch=0;outlineConnect=0;fontColor=#232F3E;gradientColor=none;fillColor=#232F3D;strokeColor=none;dashed=0;verticalLabelPosition=bottom;verticalAlign=top;align=center;html=1;fontSize=12;fontStyle=0;aspect=fixed;pointerEvents=1;shape=mxgraph.aws4.client;" vertex="1" parent="1">
          <mxGeometry x="130.00000000000003" y="240" width="78" height="76" as="geometry" />
        </mxCell>
        <mxCell id="uq0FQUMXlLQK3n40BFO4-10" value="" style="image;aspect=fixed;html=1;points=[];align=center;fontSize=12;image=img/lib/azure2/databases/Azure_Database_PostgreSQL_Server.svg;" vertex="1" parent="1">
          <mxGeometry x="642.15" y="167.5" width="52.5" height="70" as="geometry" />
        </mxCell>
        <mxCell id="uq0FQUMXlLQK3n40BFO4-12" style="edgeStyle=orthogonalEdgeStyle;rounded=0;orthogonalLoop=1;jettySize=auto;html=1;entryX=0;entryY=0.5;entryDx=0;entryDy=0;entryPerimeter=0;" edge="1" parent="1" source="uq0FQUMXlLQK3n40BFO4-3" target="uq0FQUMXlLQK3n40BFO4-4">
          <mxGeometry relative="1" as="geometry">
            <Array as="points">
              <mxPoint x="240" y="172" />
              <mxPoint x="240" y="243" />
            </Array>
          </mxGeometry>
        </mxCell>
        <mxCell id="uq0FQUMXlLQK3n40BFO4-13" style="edgeStyle=orthogonalEdgeStyle;rounded=0;orthogonalLoop=1;jettySize=auto;html=1;entryX=0;entryY=0.5;entryDx=0;entryDy=0;entryPerimeter=0;" edge="1" parent="1" source="uq0FQUMXlLQK3n40BFO4-9" target="uq0FQUMXlLQK3n40BFO4-4">
          <mxGeometry relative="1" as="geometry">
            <Array as="points">
              <mxPoint x="240" y="278" />
              <mxPoint x="240" y="243" />
            </Array>
          </mxGeometry>
        </mxCell>
        <mxCell id="uq0FQUMXlLQK3n40BFO4-32" value="" style="points=[];aspect=fixed;html=1;align=center;shadow=0;dashed=0;fillColor=#FF6A00;strokeColor=none;shape=mxgraph.alibaba_cloud.kafka;" vertex="1" parent="1">
          <mxGeometry x="642.15" y="257" width="56.699999999999996" height="42" as="geometry" />
        </mxCell>
        <mxCell id="uq0FQUMXlLQK3n40BFO4-33" style="edgeStyle=orthogonalEdgeStyle;rounded=0;orthogonalLoop=1;jettySize=auto;html=1;entryX=0.047;entryY=0.681;entryDx=0;entryDy=0;entryPerimeter=0;" edge="1" parent="1" source="uq0FQUMXlLQK3n40BFO4-5" target="uq0FQUMXlLQK3n40BFO4-32">
          <mxGeometry relative="1" as="geometry">
            <Array as="points">
              <mxPoint x="600" y="203" />
              <mxPoint x="600" y="286" />
            </Array>
          </mxGeometry>
        </mxCell>
      </root>
    </mxGraphModel>
  </diagram>
</mxfile>
